<svg id="Layer_1" data-name="Layer 1" xmlns="http://www.w3.org/2000/svg" xmlns:xlink="http://www.w3.org/1999/xlink" viewBox="0 0 205.3 173.61"><defs><style>.cls-1{fill:url(#linear-gradient);}.cls-2{fill:url(#linear-gradient-2);}</style><linearGradient id="linear-gradient" y1="121.56" x2="164.19" y2="121.56" gradientUnits="userSpaceOnUse"><stop offset="0.06" stop-color="#d24599"/><stop offset="0.13" stop-color="#b8489b"/><stop offset="0.2" stop-color="#a54b9d"/><stop offset="0.27" stop-color="#9a4d9e"/><stop offset="0.35" stop-color="#964d9e"/><stop offset="0.54" stop-color="#843d97"/><stop offset="0.73" stop-color="#793b96"/><stop offset="1" stop-color="#3f205a"/></linearGradient><linearGradient id="linear-gradient-2" x1="20.56" y1="86.8" x2="205.3" y2="86.8" gradientUnits="userSpaceOnUse"><stop offset="0.09" stop-color="#d24599"/><stop offset="0.14" stop-color="#b9489b"/><stop offset="0.19" stop-color="#a64b9d"/><stop offset="0.24" stop-color="#9b4c9e"/><stop offset="0.29" stop-color="#974d9e"/><stop offset="0.58" stop-color="#853e97"/><stop offset="0.78" stop-color="#793c97"/><stop offset="0.98" stop-color="#401c5a"/></linearGradient></defs><polygon class="cls-1" points="164.19 173.61 0 173.61 10.16 156.44 10.29 156.22 30.58 156.22 30.72 156.44 30.84 156.22 51.14 156.22 51.26 156.44 51.39 156.22 71.7 156.22 71.82 156.44 71.94 156.22 92.24 156.22 92.38 156.44 92.5 156.22 112.8 156.22 112.92 156.44 113.06 156.22 133.35 156.22 133.48 156.44 133.62 156.22 133.35 156.22 123.21 139.06 123.33 138.85 61.66 138.85 71.82 121.67 71.94 121.47 82.09 104.29 82.22 104.08 92.36 86.91 92.5 86.69 102.65 69.52 112.8 86.69 112.94 86.91 123.08 104.08 102.53 104.08 102.65 104.3 92.5 121.47 92.25 121.47 92.38 121.67 92.5 121.47 112.8 121.47 112.92 121.67 113.05 121.47 133.35 121.47 133.48 121.67 143.64 138.85 143.76 139.06 153.91 156.22 154.04 156.44 164.19 173.61"/><polygon class="cls-2" points="205.3 173.61 184.74 173.61 174.59 156.44 174.72 156.22 174.46 156.22 164.31 139.06 164.43 138.85 164.19 138.85 154.04 121.68 154.16 121.47 153.91 121.47 143.75 104.3 143.75 104.29 143.89 104.08 143.63 104.08 133.48 86.9 133.6 86.69 133.35 86.69 123.21 69.53 123.33 69.32 123.08 69.32 112.92 52.14 113.05 51.94 112.81 51.94 102.65 34.77 102.79 34.55 102.53 34.55 102.65 34.77 92.5 51.94 92.25 51.94 92.38 52.14 82.23 69.32 81.97 69.32 82.09 69.54 71.96 86.69 71.7 86.69 71.82 86.91 61.67 104.08 61.41 104.08 61.55 104.3 51.4 121.47 51.14 121.47 51.27 121.68 41.11 138.85 20.56 138.85 30.71 121.67 30.83 121.47 40.99 104.29 41.11 104.08 51.26 86.91 51.39 86.69 61.55 69.53 61.66 69.32 71.82 52.16 71.94 51.94 82.09 34.76 82.22 34.55 92.38 17.39 92.5 17.17 102.65 0 112.8 17.17 112.94 17.39 123.08 34.55 123.21 34.76 133.35 51.94 133.48 52.16 143.64 69.32 143.75 69.53 153.91 86.69 154.04 86.91 164.19 104.08 164.31 104.3 174.47 121.47 174.59 121.67 184.74 138.85 184.87 139.06 195.01 156.22 195.14 156.44 205.3 173.61"/></svg>